<svg width="44" height="59" viewBox="0 0 44 59" fill="none" xmlns="http://www.w3.org/2000/svg">
<g clip-path="url(#clip0_739_2)">
<path d="M24.5894 4.77075C23.1571 3.33032 20.8311 3.33032 19.3988 4.77075L1.06543 23.2083C-0.366862 24.6487 -0.366862 26.9879 1.06543 28.4284C2.49772 29.8688 4.82376 29.8688 6.25605 28.4284L18.3331 16.2711V51.625C18.3331 53.6647 19.9717 55.3125 21.9998 55.3125C24.0279 55.3125 25.6665 53.6647 25.6665 51.625V16.2827L37.7436 28.4168C39.1758 29.8573 41.5019 29.8573 42.9342 28.4168C44.3665 26.9764 44.3665 24.6372 42.9342 23.1967L24.6008 4.75923L24.5894 4.77075Z" fill="black"/>
</g>
<defs>
<clipPath id="clip0_739_2">
<rect width="44" height="59" fill="white"/>
</clipPath>
</defs>
</svg>
